# xmcd
#
# Track frame offsets: 
#        150
#        24203
#        47304
#        64555
#        84398
#        104990
#        121738
#        142277
#        162602
#        184430
#        205552
#        223802
#        242863
#        261268
#        281325
#        302246
#
# Disc length: 4219 seconds
#
# Revision: 0
# Processed by: cddbd v1.5.2PL0 Copyright (c) Steve Scherf et al.
# Submitted via: ExactAudioCopy v1.0b3
#
DISCID=ee107910
DTITLE=Ilir Shaqiri - Këngët e Përngritjes
DYEAR=2001
DGENRE=Folk - Shqip
TTITLE0=Sërish vjen Marsi
TTITLE1=Zemra e Kumanovës
TTITLE2=Yjet e Gjakovës
TTITLE3=Tringa e Prekazit
TTITLE4=Poqari
TTITLE5=Hapuni Dyert e Xhenetit
TTITLE6=Tokë e Mbjellë me Burra
TTITLE7=Thuaj yjet S´jan Zjarrë
TTITLE8=Veç ai S´plaket Kurrë
TTITLE9=Këngë për Luan Haredinaj
TTITLE10=Këngë për Xhevat Demakun
TTITLE11=Baladë për Vehten
TTITLE12=Këngë për Valdet Xhemajlin
TTITLE13=Këngë për Agim Zenelin
TTITLE14=Këngë për Abaz Thaqin
TTITLE15=Këngë për Enver Dobren
EXTD=
EXTT0=
EXTT1=
EXTT2=
EXTT3=
EXTT4=
EXTT5=
EXTT6=
EXTT7=
EXTT8=
EXTT9=
EXTT10=
EXTT11=
EXTT12=
EXTT13=
EXTT14=
EXTT15=
PLAYORDER=
